<svg width="71" height="70" viewBox="0 0 71 70" fill="none" xmlns="http://www.w3.org/2000/svg">
<circle cx="35.5" cy="35" r="35" fill="#58BEBF" fill-opacity="0.2"/>
<path d="M39.75 20H46.75V27H39.75V20Z" fill="#58BEBF"/>
<path d="M24 20H31V27H24V20Z" fill="#58BEBF"/>
<path fill-rule="evenodd" clip-rule="evenodd" d="M26.25 41.75C26.25 36.7795 30.2794 32.75 35.25 32.75C40.2206 32.75 44.25 36.7795 44.25 41.75C44.25 46.7205 40.2206 50.75 35.25 50.75C30.2794 50.75 26.25 46.7205 26.25 41.75ZM29.3931 41.75C29.3931 44.9795 32.0205 47.6068 35.25 47.6068C38.4794 47.6068 41.1069 44.9794 41.1069 41.75C41.1069 38.5205 38.4794 35.8931 35.25 35.8931C32.0205 35.8931 29.3931 38.5205 29.3931 41.75Z" fill="#58BEBF"/>
<path d="M31.1705 31.5499C31.9216 31.1861 32.7009 30.9322 33.5 30.7886L31.9382 29H25.5L28.9929 33C29.661 32.4143 30.3893 31.9283 31.1705 31.5499V31.5499Z" fill="#58BEBF"/>
<path d="M36.75 30.7886C37.5491 30.9321 38.3284 31.186 39.0795 31.5499C39.8607 31.9282 40.589 32.4142 41.2571 33L44.75 29H38.3118C37.8911 29.4817 37.3028 30.1554 36.75 30.7886V30.7886Z" fill="#58BEBF"/>
</svg>
